<?xml version="1.0" encoding="iso-8859-1"?>
<!-- Generator: Adobe Illustrator 19.0.0, SVG Export Plug-In . SVG Version: 6.00 Build 0)  -->
<svg version="1.1" id="Layer_1" xmlns="http://www.w3.org/2000/svg" xmlns:xlink="http://www.w3.org/1999/xlink" x="0px" y="0px"
	 viewBox="0 0 512.001 512.001" style="enable-background:new 0 0 512.001 512.001;" xml:space="preserve">
<g>
	<g>
		<path d="M493.046,350.741l-68.502-9.594c0,0,3.833-70.757,3.837-71.044l-10.089-60.112l-11.23-24.129l-55.818-24.001
			l68.943,10.485c0.105,0.225,26.766,57.508,26.766,57.508c9.901,21.234,43.233,7.431,33.417-15.062
			c-0.06-0.139-0.109-0.281-0.174-0.419c-32.516-69.863-31.08-67.024-32.255-68.799c-2.863-4.322-7.41-7.229-12.523-8.006
			l-76.131-11.577l40.653-3.247c-5.78-9.338-16.893-14.642-28.33-12.479l-47.905,9.06c-14.377,2.719-23.98,16.234-22.007,30.57
			l-21.394,23.769L223.83,139.64c-8.657-5.215-19.906-2.426-25.123,6.234c-5.216,8.659-2.426,19.907,6.234,25.124l69.414,41.817
			c7.514,4.526,17.182,3.086,23.048-3.433l12.818-14.239l18.475,93.816l0.239,179.568c0.016,12.142,9.865,21.974,22.002,21.974
			c0.01,0,0.02,0,0.03,0c12.152-0.016,21.99-9.88,21.974-22.032l-0.25-187.831l11.206-2.119l-4.392,80.417
			c-0.623,11.414,7.597,21.404,18.918,22.989l88.523,12.398c1.036,0.146,2.064,0.215,3.08,0.215
			c10.797-0.001,20.222-7.956,21.762-18.953C513.47,363.549,505.08,352.426,493.046,350.741z"/>
	</g>
</g>
<g>
	<g>
		<circle cx="330.532" cy="61.973" r="40.473"/>
	</g>
</g>
<g>
	<g>
		<path d="M293.033,349.048c-13.198-17.611-38.176-21.188-55.788-7.99c-12.192,9.138-19.84,25.972-13.518,44.123
			c16.808,7.426,34.228,16.316,49.291,25.808c4.218-1.316,8.287-3.354,12.024-6.154
			C302.654,391.636,306.231,366.659,293.033,349.048z"/>
	</g>
</g>
<g>
	<g>
		<path d="M268.621,431.592l-59.283-30.512l-15.518-79.417c6.574,10.231,12.607,21.68,17.639,32.815
			c6.005-9.205,5.965-21.554-1.009-30.859c-11.583-15.456-29.093-25.374-48.304-27.36c-19.212-1.987-38.381,4.138-52.88,16.896
			l-43.052,37.882c-10.726,9.438-16.646,23.194-16.125,37.472c0.498,13.651,6.845,26.387,17.351,35.023
			c2.185,2.579,1.066,1.492,29.977,23.273l-75.632-0.414c-0.041-0.001-0.081-0.001-0.121-0.001
			c-11.909,0-21.597,9.622-21.663,21.547c-0.066,11.966,9.581,21.719,21.547,21.784c0.207,0.001,141.104,0.776,141.104,0.776
			c9.289-0.001,17.552-5.926,20.526-14.736c2.988-8.849-0.031-18.615-7.489-24.234l-45.39-34.201l24.771-18.563
			c-0.498-21.577,0.682-43.138,4.497-64.124l16.012,81.951c1.06,5.423,4.545,10.063,9.457,12.591l67.063,34.516
			c8.877,4.567,19.758,1.065,24.315-7.791C280.976,447.041,277.487,436.155,268.621,431.592z"/>
	</g>
</g>
<g>
</g>
<g>
</g>
<g>
</g>
<g>
</g>
<g>
</g>
<g>
</g>
<g>
</g>
<g>
</g>
<g>
</g>
<g>
</g>
<g>
</g>
<g>
</g>
<g>
</g>
<g>
</g>
<g>
</g>
</svg>
