<?xml version="1.0" encoding="iso-8859-1"?>
<!-- Generator: Adobe Illustrator 16.0.0, SVG Export Plug-In . SVG Version: 6.00 Build 0)  -->
<!DOCTYPE svg PUBLIC "-//W3C//DTD SVG 1.1//EN" "http://www.w3.org/Graphics/SVG/1.1/DTD/svg11.dtd">
<svg version="1.1" id="Capa_1" xmlns="http://www.w3.org/2000/svg" xmlns:xlink="http://www.w3.org/1999/xlink" x="0px" y="0px"
	 width="28.649px" height="28.648px" viewBox="0 0 28.649 28.648" style="enable-background:new 0 0 28.649 28.648;"
	 xml:space="preserve">
<g>
	<g>
		<path d="M9.401,20.105c0.414-0.503,0.719-1.115,0.866-1.742c-0.539-0.898-0.892-1.908-1.024-2.916
			c-0.038-0.274-0.074-0.549-0.074-0.822c0-0.197,0.011-0.392,0.029-0.584l-1.416-2.453l4.133-2.386L8.924,4.021L0,9.173
			l2.992,5.182l4.132-2.387l1.629,2.822c-0.45-0.256-0.966-0.407-1.521-0.407c-1.736,0-3.145,1.408-3.145,3.145
			c0,1.23,0.709,2.596,1.739,3.289c-2.463,0.625-4.288,2.764-4.288,4.348c0,0.716,1.665,1.156,3.721,1.326
			c-0.002-0.037-0.015-0.069-0.015-0.106C5.245,24.128,6.969,21.699,9.401,20.105z M3.269,13.316l-2.23-3.865l7.606-4.392
			l2.232,3.865L3.269,13.316z"/>
		<path d="M19.606,10.792c0.473,0.556,0.842,1.199,1.084,1.902V7.563h6.275V0.102H13.331v7.461h6.275V10.792z"/>
		<path d="M24.362,20.816c1.031-0.693,1.74-2.059,1.74-3.289c0-1.736-1.406-3.145-3.145-3.145c-0.744,0-1.422,0.271-1.961,0.706
			c-0.086,1.125-0.473,2.269-1.076,3.274c0.148,0.627,0.453,1.239,0.867,1.742c2.434,1.592,4.156,4.022,4.156,6.278
			c0,0.038-0.014,0.069-0.016,0.106c2.057-0.17,3.721-0.61,3.721-1.326C28.651,23.58,26.825,21.441,24.362,20.816z"/>
		<path d="M17.258,19.691c1.586-1.066,2.678-3.17,2.678-5.065c0-2.673-2.168-4.84-4.84-4.84c-2.673,0-4.841,2.167-4.841,4.84
			c0,1.895,1.093,3.999,2.679,5.065c-3.792,0.961-6.602,4.254-6.602,6.692c0,2.884,17.527,2.884,17.527,0
			C23.858,23.945,21.049,20.652,17.258,19.691z"/>
	</g>
</g>
<g>
</g>
<g>
</g>
<g>
</g>
<g>
</g>
<g>
</g>
<g>
</g>
<g>
</g>
<g>
</g>
<g>
</g>
<g>
</g>
<g>
</g>
<g>
</g>
<g>
</g>
<g>
</g>
<g>
</g>
</svg>
