<?xml version="1.0" encoding="iso-8859-1"?>
<!-- Generator: Adobe Illustrator 19.0.0, SVG Export Plug-In . SVG Version: 6.00 Build 0)  -->
<svg version="1.1" id="Layer_1" xmlns="http://www.w3.org/2000/svg" xmlns:xlink="http://www.w3.org/1999/xlink" x="0px" y="0px"
	 viewBox="0 0 511.999 511.999" style="enable-background:new 0 0 511.999 511.999;" xml:space="preserve">
<g>
	<g>
		<path d="M182.705,70.577c-1.157-7.628-8.271-12.872-15.91-11.717c-3.187,0.484-6.377,0.844-9.566,1.137l-3.845-33.66
			c-0.32-2.804-2.805-4.849-5.618-4.625l-16.658,1.326c-4.652,0.37-9.326-0.326-13.668-2.036l-15.549-6.124
			c-2.626-1.034-5.599,0.199-6.723,2.787L81.681,48.743c-2.966-1.209-5.913-2.485-8.82-3.875c-6.962-3.33-15.302-0.389-18.633,6.571
			c-3.33,6.96-0.387,15.301,6.572,18.632c5.719,2.736,11.545,5.157,17.451,7.294c-0.463,1.6-0.836,3.245-1.09,4.937
			c-3.109,20.68,11.135,39.963,31.815,43.071c20.68,3.109,39.963-11.135,43.071-31.815c0.264-1.751,0.392-3.49,0.413-5.212
			c6.175-0.328,12.356-0.927,18.529-1.864C178.616,85.327,183.862,78.205,182.705,70.577z"/>
	</g>
</g>
<g>
	<g>
		<path d="M293.065,163.552c-7.081-0.336-22.746-1.078-38.84-1.841v-8.307c0-2.279-1.847-4.126-4.127-4.126h-8.74
			c-2.279,0-4.127,1.848-4.127,4.126c0,2.777,0,4.715,0,7.501c-0.061-0.002-0.122-0.006-0.184-0.009
			c0.068-0.023-1.659-0.05-2.815,0.164c-8.75,1.382-14.32,10.182-11.813,18.777l-65.756,23.648l-39.853-38.6l29.359,16.761
			l0.75-4.992c2.261-15.041-7.307-28.948-21.37-31.062l-33.314-5.663c-5.397-0.918-12.278-1.024-18.744,3.721L6.488,196.082
			c-5.079,3.974-7.455,10.491-6.124,16.802l18.452,87.497c1.678,7.959,8.702,13.42,16.524,13.42c6.01,0,11.756-3.192,14.827-8.782
			l9.589,77.436L33.05,469.738c-3.468,11.334,2.91,23.333,14.243,26.8c11.333,3.468,23.333-2.907,26.801-14.244l28.044-91.658
			c0.882-2.884,1.147-5.921,0.777-8.916l-8.74-70.583l2.063,0.342l27.352,71.832l-4.97,91.54
			c-0.642,11.835,8.432,21.951,20.267,22.593c11.716,0.666,21.946-8.344,22.593-20.265l5.217-96.088
			c0.162-2.997-0.305-5.996-1.373-8.801c-25.131-65.865-34.333-89.652-34.333-89.652l4.297-28.584l-41.994-64.881l47.417,45.926
			c4.665,4.52,11.455,5.932,17.482,3.765l84.144-30.263c6.118-2.201,10.177-7.566,11.017-13.586c2.235,2.491,5.89,3.169,8.883,1.542
			c3.535-1.919,4.843-6.34,2.924-9.875l-3.049-5.613c2.083-0.099,4.132-0.196,6.134-0.29c10.621-0.504,19.843-0.941,24.817-1.177
			c2.202-0.105,3.931-1.915,3.931-4.119v-7.815C296.996,165.469,295.264,163.657,293.065,163.552z M46.079,265.805l-10.458-49.587
			l20.392-15.957L46.079,265.805z"/>
	</g>
</g>
<g>
	<g>
		<path d="M490.36,141.071c-2.138-13.934-14.156-23.324-26.841-20.975l-42.061,7.788c-12.685,2.349-21.235,15.549-19.096,29.483
			l4.07,26.512l8.565-1.089l10.237-13.234l-14.362,29.01l-36.041,4.174c1.474-3.934-1.448-8.044-5.568-8.044h-27.181
			c-4.306,0-7.194,4.442-5.444,8.378l2.728,6.137c-5.724,4.003-9.127,10.938-8.266,18.363c0.508,4.393,2.431,8.276,5.258,11.252
			c-3.445,3.809-7.005,7.992-10.375,12.378c-9.169,11.931-16.91,25.327-16.91,36.572c0,27.595,20.863,49.964,46.6,49.964
			s46.6-22.37,46.6-49.964c0-9.52-5.547-20.582-12.811-30.989c-3.634-5.206-7.695-10.244-11.711-14.848l48.242-5.587
			c6.612-0.766,12.386-4.828,15.34-10.794c3.401-6.871,28.329-57.221,31.892-64.417l-17.012,70.989
			c-2.054,10.326-10.459,18.678-19.509,19.845c-8.37,1.057,0,0-19.441,2.473c1.962,12.783-0.95-6.186,6.563,42.761l-0.102,178.021
			c0,12.292,9.965,22.256,22.257,22.256s22.257-9.965,22.257-22.256V290.155l17.312-3.206v188.279
			c0,7.379-2.026,14.283-5.543,20.197c2.835,1.31,5.982,2.061,9.309,2.061c12.292,0,22.257-9.965,22.257-22.256l0.426-193.178
			L490.36,141.071z M358.695,306.836v1.844c0,0.889-1.207,1.716-2.414,1.716c-1.399,0-2.416-0.827-2.416-1.716v-1.589
			c-7.627-0.255-13.855-4.195-13.855-8.262c0-2.161,1.906-5.338,4.322-5.338c2.669,0,4.83,3.75,9.533,4.576V287.77
			c-5.847-2.225-12.711-4.958-12.711-13.092c0-8.071,5.974-11.948,12.711-12.901v-1.779c0-0.89,1.017-1.716,2.416-1.716
			c1.207,0,2.414,0.827,2.414,1.716v1.588c3.941,0.128,11.377,1.145,11.377,5.53c0,1.716-1.144,5.212-3.941,5.212
			c-2.097,0-3.305-2.034-7.436-2.351v9.278c5.784,2.161,12.521,5.148,12.521,13.728
			C371.216,300.862,366.131,305.628,358.695,306.836z"/>
	</g>
</g>
<g>
	<g>
		<circle cx="398.348" cy="78.006" r="37.885"/>
	</g>
</g>
<g>
	<g>
		<path d="M358.06,289.486v8.516c2.161-0.508,3.876-1.716,3.876-4.004C361.938,291.901,360.348,290.566,358.06,289.486z"/>
	</g>
</g>
<g>
	<g>
		<path d="M350.434,273.724c0,1.844,1.652,2.987,4.068,4.004v-7.564C351.641,270.737,350.434,272.199,350.434,273.724z"/>
	</g>
</g>
<g>
</g>
<g>
</g>
<g>
</g>
<g>
</g>
<g>
</g>
<g>
</g>
<g>
</g>
<g>
</g>
<g>
</g>
<g>
</g>
<g>
</g>
<g>
</g>
<g>
</g>
<g>
</g>
<g>
</g>
</svg>
