<?xml version="1.0" encoding="utf-8"?>
<!-- Uploaded to SVGRepo https://www.svgrepo.com -->
<svg version="1.1" id="Layer_1" xmlns="http://www.w3.org/2000/svg" xmlns:xlink="http://www.w3.org/1999/xlink" x="0px" y="0px"
	 width="256px" height="216px" viewBox="0 0 256 216" enable-background="new 0 0 256 216" xml:space="preserve">
<path d="M167.001,118.743c0,0.327,0,77.892,0,77.892c0,10.791-8.041,17.069-16.404,17.069H18.369c-8.4,0-16.369-6.86-16.369-17.525
	c0,0,0-76.722,0-76.981c0-9.566,7.948-16.805,16.477-16.805h42.452V86.204c0-5.737,5.223-9.347,11.361-9.347
	c-0.131,0,23.767,0,23.767,0c6.268,0,11.361,3.61,11.361,9.347v15.535h43.116C159.025,101.739,166.937,109.064,167.001,118.743z
	 M69.441,102.394h29.465V86.024H69.441V102.394z M204.648,2.421c-5.082,5.525-11.425,11.367-20.387,14.914
	c-21.019,8.308-39.186,10.96-39.186,10.96l0.25,0.05l-21.37,3.403c-3.253,0.551-5.455,3.603-4.955,6.856
	c0.5,2.953,3.003,5.055,5.905,5.005c0.3,0,0.651,0,0.951-0.05l21.62-3.403c0,0,0.2-0.1,0.4,0.05c0.1,0.1,0.15,0.3,0.1,0.45
	c-0.05,0.1-0.1,0.15-0.3,0.25c-15.865,6.706-28.526,14.063-29.277,14.513c-2.853,1.702-3.803,5.355-2.152,8.208
	c1.101,1.902,3.103,2.953,5.155,2.953c1.001,0,2.052-0.25,3.003-0.801c0.2-0.1,14.063-8.157,30.528-14.914
	c0.1-0.05,0.15-0.05,0.25-0.05c0.3,0,0.5,0.35,0.3,0.55c-0.05,0.05-0.1,0.1-0.2,0.15c-9.108,5.355-19.318,13.562-26.975,25.574
	c-1.752,2.803-0.951,6.506,1.852,8.258c1.001,0.651,2.102,0.951,3.203,0.951c2.002,0,3.904-0.951,5.055-2.753
	c4.654-7.357,10.51-13.012,16.465-17.416c0,0,15.664-13.813,31.779-10.76c15.464,2.903,10.46,14.213,9.158,21.27l-1.652,6.656
	l0.1,0.05c-0.05,0.35-0.1,0.751-0.1,1.151c0,3.854,3.153,7.006,7.006,7.006c3.453,0,6.356-2.552,6.906-5.855l11.41-36.283
	c1.151-2.502,2.352-4.905,3.553-7.257L254,2.296l-13.387,0.125H204.648z"/>
</svg>
