<svg height="503pt" viewBox="0 0 503 503.9947" width="503pt" xmlns="http://www.w3.org/2000/svg"><path d="m193.789062 43.890625c7.757813-18.617187 22.816407-33.234375 41.652344-40.441406 10.695313-4.597657 22.804688-4.597657 33.5 0 18.835938 7.207031 33.894532 21.824219 41.652344 40.441406zm0 0" fill="#d1d4d1"/><path d="m484.761719 390.488281 10.414062 8.675781c3.902344 4.859376 7.289063 7.636719 7.894531 13.972657 1.476563 14.316406-9.457031 25.859375-20.046874 33.84375-10.5625 7.535156-21.910157 13.910156-33.84375 19.003906-57.109376 25.277344-118.914063 38.203125-181.367188 37.921875-2.863281 0-5.726562 0-8.59375.089844-2.339844 0-4.683594 0-7.027344-.089844h-.609375c-2.339843.089844-4.683593.089844-7.027343.089844-2.863282-.089844-5.726563-.089844-8.589844-.089844-62.453125.28125-124.261719-12.644531-181.371094-37.921875-11.96875-5.074219-23.347656-11.449219-33.929688-19.003906-10.5-7.984375-21.433593-19.527344-20.046874-33.84375 1.027343-5.417969 3.835937-10.335938 7.984374-13.972657l10.414063-8.675781zm0 0" fill="#35495e"/><path d="m451.785156 362.976562 32.976563 27.511719s-1.214844 1.214844-3.644531 3.382813c-1.476563 1.214844-3.386719 2.863281-5.730469 4.6875-1.214844.953125-2.515625 1.996094-3.902344 3.035156-1.417969 1.238281-2.929687 2.371094-4.511719 3.386719l-2.605468 1.820312c-12.316407 8.730469-25.316407 16.449219-38.875 23.085938-38.445313 19.089843-95.632813 29.503906-171.566407 30.023437h-4.078125c-75.929687-.519531-133.121094-10.933594-171.5625-30.023437-13.5625-6.636719-26.5625-14.355469-38.878906-23.085938l-2.601562-1.820312c-1.585938-1.015625-3.09375-2.148438-4.511719-3.386719-1.390625-1.039062-2.691407-2.082031-3.90625-3.035156-2.34375-1.824219-4.253907-3.472656-5.726563-4.6875-2.429687-2.167969-3.644531-3.382813-3.644531-3.382813l33.320313-27.769531zm0 0" fill="#2c3e50"/><path d="m443.105469 308.742188c0 7.722656-.171875 15.445312-.691407 22.996093l-.4375 2.167969c-2.339843-.433594-4.769531 17.007812-7.289062 17.617188-119.832031 29.851562-245.160156 29.851562-364.992188 0-2.519531-.609376-4.949218-18.050782-7.292968-17.617188l-.433594-2.167969c-.519531-7.550781-.691406-15.273437-.691406-22.996093 0-130.429688 42.433594-234.394532 132.511718-264.851563 18.828126-6.257813 38.5625-9.367187 58.402344-9.199219 19.839844-.167968 39.574219 2.941406 58.402344 9.199219 90.078125 30.457031 132.511719 134.421875 132.511719 264.851563zm0 0" fill="#35495e"/><path d="m454.648438 359.246094c-.117188.125-.207032.273437-.261719.433594-.714844 1.210937-1.589844 2.320312-2.601563 3.296874-1.082031 1.089844-2.308594 2.023438-3.644531 2.777344-1.5625.964844-3.257813 1.695313-5.035156 2.171875-125.371094 31.152344-256.457031 31.152344-381.828125 0-1.777344-.476562-3.472656-1.207031-5.035156-2.171875-1.460938-.785156-2.78125-1.8125-3.90625-3.035156-1.035157-1.023438-1.914063-2.191406-2.601563-3.472656-2.300781-3.835938-2.925781-8.445313-1.734375-12.757813 1.246094-4.457031 4.253906-8.214843 8.328125-10.414062 1.523437-.921875 3.199219-1.570313 4.949219-1.90625l1.125-.261719c2.421875-.429688 4.90625-.339844 7.292968.261719 119.832032 29.851562 245.160157 29.851562 364.992188 0 2.386719-.601563 4.871094-.691407 7.289062-.261719l1.128907.261719c6.367187 1.332031 11.472656 6.074219 13.277343 12.320312 1.191407 4.3125.5625 8.921875-1.734374 12.757813zm0 0" fill="#2c2f38"/><path d="m274.753906 111.925781c16.742188 7.28125 34.855469 10.863281 53.109375 10.5.953125-.089843 1.824219-.089843 2.691407-.175781 2.445312-.128906 4.832031.789062 6.554687 2.53125 1.726563 1.742188 2.625 4.136719 2.46875 6.582031 0 .867188-.085937 1.734375-.085937 2.601563-.648438 25.445312 9.503906 49.972656 27.941406 67.515625.695312.609375 1.304687 1.214843 1.910156 1.824219 1.859375 1.597656 2.929688 3.925781 2.929688 6.375 0 2.453124-1.070313 4.78125-2.929688 6.378906-.605469.609375-1.214844 1.128906-1.910156 1.738281-18.429688 17.585937-28.574219 42.132813-27.941406 67.601563 0 .867187.085937 1.734374.085937 2.601562.15625 2.445312-.742187 4.839844-2.46875 6.582031-1.722656 1.742188-4.109375 2.660157-6.554687 2.53125-.867188-.089843-1.738282-.089843-2.691407-.175781-25.445312-.574219-49.957031 9.601562-67.515625 28.03125-.621094.59375-1.203125 1.230469-1.734375 1.910156-1.644531 1.808594-3.976562 2.839844-6.421875 2.839844-2.445312 0-4.777344-1.03125-6.421875-2.839844-.53125-.679687-1.113281-1.316406-1.734375-1.910156-17.558594-18.429688-42.070312-28.605469-67.515625-28.03125-.953125.085938-1.824219.085938-2.691406.175781-2.445313.128907-4.832031-.789062-6.554687-2.53125-1.726563-1.742187-2.625-4.136719-2.46875-6.582031 0-.867188.085937-1.734375.085937-2.601562.632813-25.46875-9.515625-50.015626-27.941406-67.601563-.695313-.609375-1.304688-1.128906-1.910157-1.738281-1.859374-1.597656-2.929687-3.925782-2.929687-6.378906 0-2.449219 1.070313-4.777344 2.929687-6.375.605469-.609376 1.214844-1.214844 1.910157-1.824219 18.4375-17.542969 28.589843-42.070313 27.941406-67.515625 0-.867188-.085937-1.734375-.085937-2.601563-.15625-2.445312.742187-4.839843 2.46875-6.582031 1.722656-1.742188 4.109374-2.660156 6.554687-2.53125.867187.085938 1.738281.085938 2.691406.175781 18.253907.363281 36.367188-3.21875 53.109375-10.5" fill="#d1d4d1"/><path d="m321.613281 208.25c0 38.339844-31.082031 69.421875-69.421875 69.421875s-69.421875-31.082031-69.421875-69.421875c0-38.34375 31.082031-69.425781 69.421875-69.425781s69.421875 31.082031 69.421875 69.425781zm0 0" fill="#5e5f62"/><path d="m286.902344 208.25c0 19.171875-15.539063 34.710938-34.710938 34.710938s-34.710937-15.539063-34.710937-34.710938 15.539062-34.710938 34.710937-34.710938 34.710938 15.539063 34.710938 34.710938zm0 0" fill="#d1d4d1"/><path d="m252.191406 69.402344c53.542969-15.300782 32.925782 30.078125 27.285156 41.054687-.742187 1.445313-2.230468 2.347657-3.855468 2.335938h-46.859375c-1.625.011719-3.113281-.890625-3.855469-2.335938-5.640625-10.976562-26.257812-56.355469 27.285156-41.054687" fill="#bdc3c7"/><path d="m252.191406 95.4375c-4.792968 0-8.679687-3.886719-8.679687-8.679688v-26.035156c0-4.792968 3.886719-8.675781 8.679687-8.675781 4.792969 0 8.679688 3.882813 8.679688 8.675781v26.035156c0 4.792969-3.886719 8.679688-8.679688 8.679688zm0 0" fill="#e6e7e8"/></svg>