<?xml version="1.0" encoding="UTF-8"?>
<svg enable-background="new 0 0 185.86 288.884" viewBox="0 0 185.86 288.884" xmlns="http://www.w3.org/2000/svg">
 <path d="m14.5,282.134c0,0 9.75.75 9.25,6.75 0,0 4.25-2.75 5.25-6.5s6,0 6,0 2-3.75 2.25-4.5 20.5,9.75 21.5,10 8.25-15 8.25-15 28.25,8.5 29.5,8.25 .75-4.5.75-4.5l14.25.75-1.5-6 12.5,9 14.5-1 7.25,4.75 14-6 1.5,2 4-4.5 7-.75 2-10.5-11.5,1.75-1.5-6c0,0-8-.25-7.5-1s10.5-.75 10.5-.75l3-5.75c0,0-4.25-1.25-4.5-1.5s7.25,0 7.25,0l3.5-2.25-2.75-3.75 5,1.25c0,0 14.75-14 11-23.5s-17.5-14.5-23.75-14-5.083,5.751-5.083,5.751-4.167-.5-5.5-4c0,0 1-3.166 5.5-4.833s-.501-12.167-2.667-16.167 .168-2.667 2.334-3.667-2.501-7.834-4.834-12 1.125-4.584 3-6.334-3.5-5.25-6.125-7.375-3.625-11.625-12.5-12-5-28.75-3.75-33.125-4.625-.5-7.625-12.333-8.333-7.5-11.167-7.833-11,3.167-12.333-.167 5-2.667 7.333-2.333 1.5-1 2.667-2.833 8.333,6 8-.333-4.167-6-4.167-6l1.833-2.167c0,0 18.833-17 19-24.167s5.833-4.167 5.833-9.167-18.667-8.167-21.667-7.667-6.833-4.167-9-2.667-6,4-7.333,3.167-8.333,1.333-8.167-1 3.333-5.166 4.833-3.833 3.167.5 3.167.5 3-2.667 3.333-3.5-2.333-1-3.667-1-1.667-.833-1.167-1.333 19.5-13.333 20-14.167 3.666-5 3.833-7.5-23.5-3.5-23.833-2.167-2.5,3.5-2.5,3.5-.333-2.833-1-4.667-6.5-8.167-7.5-4.167-1.667,6.5-2.667,6.5-7,2.333 1.667,6c0,0-1.167,3.667-4.333,1s-3.667-3.333-3,.333l.167,3.833-3.667-2.5c0,0-2.375,2.417.375,4.667 0,0 3,1.875 1.375,3s-2.25.25-4.25-1.875-2.625,1.875-1.5,4.25-1.125,1.375-2,0-2.25-4.25-3.25-2.375 1.25,8.25 3.25,10.75 .875,10.5.625,10.875-6.25-1.125-5.625.875 6.625,3.375 4.625,5.125-4.5,2.125-6.375.125-7.125,1.5-4,5.125 1.125,3.75-1.375,2.625-6.125-2.25-5.875.25 .375,2.875.375,2.875-4.25-.5-3.375,1.5 4.5.75 5.25,2.375-1.375,4.875-3.625,5-6.875-.625-4.25,2.25 11.375,1.125 13.5-2 2.875-4.125 3.5-4.625 3.125-2.375 3.125-2.375l3.752-2.124 .5,2-5.5,3.75-1.75,3.75-3.625,3.5c.25,2.5-.5,8-.5,8l-5.375,3.25c0,0 3.375.375 4.5-.375s-3.625,4-3.625,4l2.25,2.25c0,0-4.25,2.25-4.75,6.25s-3.5,7.25-4.25,7.75-1.25,3 1,3.125 5-1.5 5-1.5l1.5-4.375 .875-2.625 1.375-4.625 3.25-2.125 .375-4-1-3.25 10.875-6.5c0,0-.375,5.75.75,8.375s5.5,3.375 5.5,3.375l-6.75-.875c0,0-2.375,6.875-2.375,7.5s3.5,7.25 3.5,7.25l-5.5,5.625-5.25,7.5-.5,4.375c0,0-3.125.5-3.5.625s5.75,4.875 5.75,4.875l1.625-2.125 5.625,8.25 2-2.625c0,0-.375-5.25-.375-5.5s5.5,6.875 5.5,6.875l3.75-.75c0,0 4.5-4.25 6.25-2.25s3.875-2.125 3.875-2.125l3.25,1.125 3.625.125-.75,1.75c0,0-6-1-6.625,1.25s-6.625,9.5-6.625,9.5 1.875,2.25 3,5.75-.625,5.875-.625,5.875l1.375,1.25 2.5-1.25-.25,4.625v.625l2.875.875 3.875-4.5 .875,2.5-2.875,3.75 1.125,1.75-.625,1.75-4.875-.75-1,3.625 3.5,2.625-.125,1.75-5,3.625 .75,4.25 6.5,4.625-2.25,2.5-4.625-6.125-2,1.875 1.875,2.875-2.125,2.375-1.625-4.5c0,0-3.875-1.875-5-.25s-3.125,2.125-4.25.75-2.5-3.25-2.5-3.25-2.125,2.125-2.25,2.5-4.375.25-4.375.25l1.5-3.25-6-6.375-3.75,3.5 3.625,7.25-4.75,5.75c0,0-4.875,3.125-4.875,2.625s2,4.625 2,4.625l6.875-5 4,5.125 .125,9.5-11.5,10-5.5-.625-3.75,4.625-10.125-1.625-.875,9.125 2.5,1.375 2.375,4.125 5.5.375 3-3.375 5.625.125 .875,8.375 4.125-.375 2.125-2 2.875.875 2.125,6.75 5,4.25 4.125-.625 4.625-4.875 3.25.75 2.375,1.25-5.25,4.25-1.875,4.25c0,0 .25.625-.125.625s-6.5,1.375-6.5,1.375l-8.5-5.375c0,0-8.5.5-8.75.125s-3.875,6.375-3.875,6.375h-3l-1.75-3.25-3.25,3.125 1.5,5-7.75,5.75c0,0-1.875-.75-2.375-.75s-2.25,3.875-2.25,3.875-4.125,2.125-4,1.875-1.375,3.625-1.375,3.625l-9.125.125-3.75.5 .25,3.5z" fill="#0071bc"/>
 <path d="m0,126.759 10.5,13.375 5.875-.125 1.125-6.125 5.375-1.125 .75,6.625 4.125,3.125-1.75,3.5 4.75,1.375 1.375-2.375 4.5,3.25 3-.375 2.75-5.125 8-.625 .75-11.125-5.375.875-2.625-1 5.875-5.125-.375-2.75-3.375-1.625-.75-4 .75-5.125-6.375-3.875h-4.25l-1.75,1.625-4.5-1.5-2.375,4.5-3.375-.625c0,0-2.125-1.375-2.5-1.375s-5,8.75-5,8.75l-6.25-.5 2.125,4.25-11,3.25z" fill="#0071bc"/>
</svg>
