<?xml version="1.0" encoding="UTF-8" standalone="no"?>
<svg
   xmlns:osb="http://www.openswatchbook.org/uri/2009/osb"
   xmlns:dc="http://purl.org/dc/elements/1.1/"
   xmlns:cc="http://creativecommons.org/ns#"
   xmlns:rdf="http://www.w3.org/1999/02/22-rdf-syntax-ns#"
   xmlns:svg="http://www.w3.org/2000/svg"
   xmlns="http://www.w3.org/2000/svg"
   xmlns:sodipodi="http://sodipodi.sourceforge.net/DTD/sodipodi-0.dtd"
   xmlns:inkscape="http://www.inkscape.org/namespaces/inkscape"
   width="210mm"
   height="297mm"
   viewBox="0 0 210 297"
   version="1.1"
   id="svg8"
   inkscape:version="1.0.2 (e86c870879, 2021-01-15, custom)"
   sodipodi:docname="ukVectorGuide.svg">
  <defs
     id="defs2">
    <marker
       inkscape:stockid="DistanceStart"
       orient="auto"
       refY="0.0"
       refX="0.0"
       id="DistanceStart"
       style="overflow:visible"
       inkscape:isstock="true">
      <g
         id="g2300">
        <path
           id="path2306"
           d="M 0,0 L 2,0"
           style="fill:none;stroke:#ffffff;stroke-width:1.15;stroke-linecap:square" />
        <path
           id="path2302"
           d="M 0,0 L 13,4 L 9,0 13,-4 L 0,0 z "
           style="fill:#000000;fill-rule:evenodd;stroke:none" />
        <path
           id="path2304"
           d="M 0,-4 L 0,40"
           style="fill:none;stroke:#000000;stroke-width:1;stroke-linecap:square" />
      </g>
    </marker>
    <linearGradient
       id="linearGradient853"
       osb:paint="solid">
      <stop
         style="stop-color:#000000;stop-opacity:1;"
         offset="0"
         id="stop851" />
    </linearGradient>
  </defs>
  <sodipodi:namedview
     id="base"
     pagecolor="#ffffff"
     bordercolor="#666666"
     borderopacity="1.0"
     inkscape:pageopacity="0.0"
     inkscape:pageshadow="2"
     inkscape:zoom="0.98994949"
     inkscape:cx="208.88276"
     inkscape:cy="188.17074"
     inkscape:document-units="mm"
     inkscape:current-layer="layer1"
     inkscape:document-rotation="0"
     showgrid="false"
     inkscape:snap-text-baseline="false"
     inkscape:window-width="1920"
     inkscape:window-height="1017"
     inkscape:window-x="-8"
     inkscape:window-y="-8"
     inkscape:window-maximized="1" />
  <metadata
     id="metadata5">
    <rdf:RDF>
      <cc:Work
         rdf:about="">
        <dc:format>image/svg+xml</dc:format>
        <dc:type
           rdf:resource="http://purl.org/dc/dcmitype/StillImage" />
        <dc:title></dc:title>
      </cc:Work>
    </rdf:RDF>
  </metadata>
  <g
     inkscape:label="Layer 1"
     inkscape:groupmode="layer"
     id="layer1">
    <g
       id="g24"
       transform="matrix(0.8301951,0,0,0.8301951,29.203004,29.700939)">
      <path
         d="m 14.5,282.134 c 0,0 9.75,0.75 9.25,6.75 0,0 4.25,-2.75 5.25,-6.5 1,-3.75 6,0 6,0 0,0 2,-3.75 2.25,-4.5 0.25,-0.75 20.5,9.75 21.5,10 1,0.25 8.25,-15 8.25,-15 0,0 28.25,8.5 29.5,8.25 1.25,-0.25 0.75,-4.5 0.75,-4.5 l 14.25,0.75 -1.5,-6 12.5,9 14.5,-1 7.25,4.75 14,-6 1.5,2 4,-4.5 7,-0.75 2,-10.5 -11.5,1.75 -1.5,-6 c 0,0 -8,-0.25 -7.5,-1 0.5,-0.75 10.5,-0.75 10.5,-0.75 l 3,-5.75 c 0,0 -4.25,-1.25 -4.5,-1.5 -0.25,-0.25 7.25,0 7.25,0 l 3.5,-2.25 -2.75,-3.75 5,1.25 c 0,0 14.75,-14 11,-23.5 -3.75,-9.5 -17.5,-14.5 -23.75,-14 -6.25,0.5 -5.083,5.751 -5.083,5.751 0,0 -4.167,-0.5 -5.5,-4 0,0 1,-3.166 5.5,-4.833 4.5,-1.667 -0.501,-12.167 -2.667,-16.167 -2.166,-4 0.168,-2.667 2.334,-3.667 2.166,-1 -2.501,-7.834 -4.834,-12 -2.333,-4.166 1.125,-4.584 3,-6.334 1.875,-1.75 -3.5,-5.25 -6.125,-7.375 -2.625,-2.125 -3.625,-11.625 -12.5,-12 -8.875,-0.375 -5,-28.75 -3.75,-33.125 1.25,-4.375 -4.625,-0.5 -7.625,-12.333 -3,-11.833 -8.333,-7.5 -11.167,-7.833 -2.834,-0.333 -11,3.167 -12.333,-0.167 -1.333,-3.334 5,-2.667 7.333,-2.333 2.333,0.334 1.5,-1 2.667,-2.833 1.167,-1.833 8.333,6 8,-0.333 -0.333,-6.333 -4.167,-6 -4.167,-6 l 1.833,-2.167 c 0,0 18.833,-17 19,-24.167 0.167,-7.167 5.833,-4.167 5.833,-9.167 0,-5 -18.667,-8.167 -21.667,-7.667 -3,0.5 -6.833,-4.167 -9,-2.667 -2.167,1.5 -6,4 -7.333,3.167 -1.333,-0.833 -8.333,1.333 -8.167,-1 0.166,-2.333 3.333,-5.166 4.833,-3.833 1.5,1.333 3.167,0.5 3.167,0.5 0,0 3,-2.667 3.333,-3.5 0.333,-0.833 -2.333,-1 -3.667,-1 -1.334,0 -1.667,-0.833 -1.167,-1.333 0.5,-0.5 19.5,-13.333 20,-14.167 0.5,-0.834 3.666,-5 3.833,-7.5 0.167,-2.5 -23.5,-3.5 -23.833,-2.167 -0.333,1.333 -2.5,3.5 -2.5,3.5 0,0 -0.333,-2.833 -1,-4.667 -0.667,-1.834 -6.5,-8.167 -7.5,-4.167 -1,4 -1.667,6.5 -2.667,6.5 -1,0 -7,2.333 1.667,6 0,0 -1.167,3.667 -4.333,1 -3.166,-2.667 -3.667,-3.333 -3,0.333 l 0.167,3.833 -3.667,-2.5 c 0,0 -2.375,2.417 0.375,4.667 0,0 3,1.875 1.375,3 -1.625,1.125 -2.25,0.25 -4.25,-1.875 -2,-2.125 -2.625,1.875 -1.5,4.25 1.125,2.375 -1.125,1.375 -2,0 -0.875,-1.375 -2.25,-4.25 -3.25,-2.375 -1,1.875 1.25,8.25 3.25,10.75 2,2.5 0.875,10.5 0.625,10.875 -0.25,0.375 -6.25,-1.125 -5.625,0.875 0.625,2 6.625,3.375 4.625,5.125 -2,1.75 -4.5,2.125 -6.375,0.125 -1.875,-2 -7.125,1.5 -4,5.125 3.125,3.625 1.125,3.75 -1.375,2.625 -2.5,-1.125 -6.125,-2.25 -5.875,0.25 0.25,2.5 0.375,2.875 0.375,2.875 0,0 -4.25,-0.5 -3.375,1.5 0.875,2 4.5,0.75 5.25,2.375 0.75,1.625 -1.375,4.875 -3.625,5 -2.25,0.125 -6.875,-0.625 -4.25,2.25 2.625,2.875 11.375,1.125 13.5,-2 2.125,-3.125 2.875,-4.125 3.5,-4.625 0.625,-0.5 3.125,-2.375 3.125,-2.375 L 73,62.759 l 0.5,2 -5.5,3.75 -1.75,3.75 -3.625,3.5 c 0.25,2.5 -0.5,8 -0.5,8 l -5.375,3.25 c 0,0 3.375,0.375 4.5,-0.375 1.125,-0.75 -3.625,4 -3.625,4 l 2.25,2.25 c 0,0 -4.25,2.25 -4.75,6.25 -0.5,4 -3.5,7.25 -4.25,7.75 -0.75,0.5 -1.25,3 1,3.125 2.25,0.125 5,-1.5 5,-1.5 l 1.5,-4.375 0.875,-2.625 1.375,-4.625 3.25,-2.125 0.375,-4 -1,-3.25 10.875,-6.5 c 0,0 -0.375,5.75 0.75,8.375 1.125,2.625 5.5,3.375 5.5,3.375 l -6.75,-0.875 c 0,0 -2.375,6.875 -2.375,7.5 0,0.625 3.5,7.25 3.5,7.25 l -5.5,5.625 -5.25,7.5 -0.5,4.375 c 0,0 -3.125,0.5 -3.5,0.625 -0.375,0.125 5.75,4.875 5.75,4.875 l 1.625,-2.125 5.625,8.25 2,-2.625 c 0,0 -0.375,-5.25 -0.375,-5.5 0,-0.25 5.5,6.875 5.5,6.875 l 3.75,-0.75 c 0,0 4.5,-4.25 6.25,-2.25 1.75,2 3.875,-2.125 3.875,-2.125 l 3.25,1.125 3.625,0.125 -0.75,1.75 c 0,0 -6,-1 -6.625,1.25 -0.625,2.25 -6.625,9.5 -6.625,9.5 0,0 1.875,2.25 3,5.75 1.125,3.5 -0.625,5.875 -0.625,5.875 l 1.375,1.25 2.5,-1.25 -0.25,4.625 v 0.625 l 2.875,0.875 3.875,-4.5 0.875,2.5 -2.875,3.75 1.125,1.75 -0.625,1.75 -4.875,-0.75 -1,3.625 3.5,2.625 -0.125,1.75 -5,3.625 0.75,4.25 6.5,4.625 -2.25,2.5 -4.625,-6.125 -2,1.875 1.875,2.875 -2.125,2.375 -1.625,-4.5 c 0,0 -3.875,-1.875 -5,-0.25 -1.125,1.625 -3.125,2.125 -4.25,0.75 -1.125,-1.375 -2.5,-3.25 -2.5,-3.25 0,0 -2.125,2.125 -2.25,2.5 -0.125,0.375 -4.375,0.25 -4.375,0.25 l 1.5,-3.25 -6,-6.375 -3.75,3.5 3.625,7.25 -4.75,5.75 c 0,0 -4.875,3.125 -4.875,2.625 0,-0.5 2,4.625 2,4.625 l 6.875,-5 4,5.125 0.125,9.5 -11.5,10 -5.5,-0.625 -3.75,4.625 -10.125,-1.625 -0.875,9.125 2.5,1.375 2.375,4.125 5.5,0.375 3,-3.375 5.625,0.125 0.875,8.375 4.125,-0.375 2.125,-2 2.875,0.875 2.125,6.75 5,4.25 4.125,-0.625 4.625,-4.875 3.25,0.75 2.375,1.25 -5.25,4.25 -1.875,4.25 c 0,0 0.25,0.625 -0.125,0.625 -0.375,0 -6.5,1.375 -6.5,1.375 L 64,252.259 c 0,0 -8.5,0.5 -8.75,0.125 -0.25,-0.375 -3.875,6.375 -3.875,6.375 h -3 l -1.75,-3.25 -3.25,3.125 1.5,5 -7.75,5.75 c 0,0 -1.875,-0.75 -2.375,-0.75 -0.5,0 -2.25,3.875 -2.25,3.875 0,0 -4.125,2.125 -4,1.875 0.125,-0.25 -1.375,3.625 -1.375,3.625 l -9.125,0.125 -3.75,0.5 z"
         fill="#0071bc"
         id="path10" />
      <path
         d="m 0,126.759 10.5,13.375 5.875,-0.125 1.125,-6.125 5.375,-1.125 0.75,6.625 4.125,3.125 -1.75,3.5 4.75,1.375 1.375,-2.375 4.5,3.25 3,-0.375 2.75,-5.125 8,-0.625 0.75,-11.125 -5.375,0.875 -2.625,-1 5.875,-5.125 -0.375,-2.75 -3.375,-1.625 -0.75,-4 0.75,-5.125 -6.375,-3.875 h -4.25 l -1.75,1.625 -4.5,-1.5 -2.375,4.5 -3.375,-0.625 c 0,0 -2.125,-1.375 -2.5,-1.375 -0.375,0 -5,8.75 -5,8.75 l -6.25,-0.5 2.125,4.25 z"
         fill="#0071bc"
         id="path12" />
    </g>
    <rect
       style="fill:none;fill-opacity:1;fill-rule:evenodd;stroke-width:0.695779"
       id="rect26"
       width="207.24178"
       height="278.31046"
       x="6.8035717"
       y="12.357705" />
    <rect
       style="opacity:0.43;fill:none;stroke-width:2.08731;stroke-miterlimit:4;stroke-dasharray:none"
       id="rect1137"
       width="190.34453"
       height="259.92197"
       x="6.8035717"
       y="12.357705"
       ry="0.99395907" />
    <rect
       style="opacity:0.43;fill:none;stroke:#000000;stroke-width:2.08731;stroke-miterlimit:4;stroke-dasharray:none;stroke-opacity:1"
       id="rect1144"
       width="162.0164"
       height="255.44899"
       x="24.694921"
       y="21.800531"
       ry="4.9698243"
       rx="1.987931" />
    <text
       xml:space="preserve"
       style="font-style:normal;font-variant:normal;font-weight:bold;font-stretch:normal;font-size:16.9333px;line-height:1.25;font-family:sans-serif;-inkscape-font-specification:'sans-serif Bold';fill:#000000;fill-opacity:1;stroke:none;stroke-width:0.695779"
       x="1.4581813"
       y="12.357704"
       id="text1148"><tspan
         sodipodi:role="line"
         id="tspan1146"
         x="1.4581813"
         y="12.357704"
         style="font-style:normal;font-variant:normal;font-weight:bold;font-stretch:normal;font-size:16.9333px;font-family:sans-serif;-inkscape-font-specification:'sans-serif Bold';stroke-width:0.695779">49.88, -8.21</tspan></text>
    <path
       sodipodi:type="star"
       style="opacity:0.53871;fill:#d4aa00;fill-opacity:1;stroke:#000000;stroke-width:0.553072;stroke-miterlimit:4;stroke-dasharray:none;stroke-opacity:1"
       id="path1150"
       sodipodi:sides="5"
       sodipodi:cx="52.966614"
       sodipodi:cy="65.414856"
       sodipodi:r1="2.650074"
       sodipodi:r2="0.90102535"
       sodipodi:arg1="0.46364817"
       sodipodi:arg2="1.0919667"
       inkscape:flatsided="false"
       inkscape:rounded="0"
       inkscape:randomized="0"
       d="m 55.336911,66.600006 -1.955158,-0.385459 -0.809822,1.820828 -0.237584,-1.97858 -1.981958,-0.20752 1.808323,-0.83737 -0.415095,-1.949082 1.355189,1.461056 1.725415,-0.997078 -0.970771,1.740352 z"
       inkscape:transform-center-x="0.37590253"
       inkscape:transform-center-y="0.34351087"
       transform="matrix(3.082702,0,0,2.5592595,-137.69362,-144.5403)" />
    <text
       xml:space="preserve"
       style="font-style:normal;font-weight:normal;font-size:16.9333px;line-height:1.25;font-family:sans-serif;fill:#000000;fill-opacity:1;stroke:none;stroke-width:0.695779"
       x="119.66791"
       y="12.513614"
       id="text1148-0"><tspan
         sodipodi:role="line"
         id="tspan1146-0"
         x="119.66791"
         y="12.513614"
         style="font-style:normal;font-variant:normal;font-weight:bold;font-stretch:normal;font-size:16.9333px;font-family:sans-serif;-inkscape-font-specification:'sans-serif Bold';stroke-width:0.695779">49.88, -1.77</tspan></text>
    <path
       sodipodi:type="star"
       style="opacity:0.53871;fill:#d4aa00;fill-opacity:1;stroke:#000000;stroke-width:0.553072;stroke-miterlimit:4;stroke-dasharray:none;stroke-opacity:1"
       id="path1150-2"
       sodipodi:sides="5"
       sodipodi:cx="52.966614"
       sodipodi:cy="65.414856"
       sodipodi:r1="2.650074"
       sodipodi:r2="0.90102535"
       sodipodi:arg1="0.46364817"
       sodipodi:arg2="1.0919667"
       inkscape:flatsided="false"
       inkscape:rounded="0"
       inkscape:randomized="0"
       inkscape:transform-center-x="0.3758985"
       inkscape:transform-center-y="0.34350179"
       transform="matrix(3.082702,0,0,2.5592595,20.691115,-145.23512)"
       d="m 55.336911,66.600006 -1.955158,-0.385459 -0.809822,1.820828 -0.237584,-1.97858 -1.981958,-0.20752 1.808323,-0.83737 -0.415095,-1.949082 1.355189,1.461056 1.725415,-0.997078 -0.970771,1.740352 z" />
    <text
       xml:space="preserve"
       style="font-style:normal;font-weight:normal;font-size:16.9333px;line-height:1.25;font-family:sans-serif;fill:#000000;fill-opacity:1;stroke:none;stroke-width:0.695779"
       x="0.24465996"
       y="295.20828"
       id="text1148-2"><tspan
         sodipodi:role="line"
         id="tspan1146-5"
         x="0.24465996"
         y="295.20828"
         style="font-style:normal;font-variant:normal;font-weight:bold;font-stretch:normal;font-size:16.9333px;font-family:sans-serif;-inkscape-font-specification:'sans-serif Bold';stroke-width:0.695779">60.86, -8.21</tspan></text>
    <path
       sodipodi:type="star"
       style="opacity:0.53871;fill:#d4aa00;fill-opacity:1;stroke:#000000;stroke-width:0.553072;stroke-miterlimit:4;stroke-dasharray:none;stroke-opacity:1"
       id="path1150-0"
       sodipodi:sides="5"
       sodipodi:cx="52.966614"
       sodipodi:cy="65.414856"
       sodipodi:r1="2.650074"
       sodipodi:r2="0.90102535"
       sodipodi:arg1="0.46364817"
       sodipodi:arg2="1.0919667"
       inkscape:flatsided="false"
       inkscape:rounded="0"
       inkscape:randomized="0"
       inkscape:transform-center-x="0.37589345"
       inkscape:transform-center-y="0.34341144"
       transform="matrix(3.082702,0,0,2.5592595,-136.63617,108.19297)"
       d="m 55.336911,66.600006 -1.955158,-0.385459 -0.809822,1.820828 -0.237584,-1.97858 -1.981958,-0.20752 1.808323,-0.83737 -0.415095,-1.949082 1.355189,1.461056 1.725415,-0.997078 -0.970771,1.740352 z" />
    <text
       xml:space="preserve"
       style="font-style:normal;font-weight:normal;font-size:16.9333px;line-height:1.25;font-family:sans-serif;fill:#000000;fill-opacity:1;stroke:none;stroke-width:0.695779"
       x="115.9705"
       y="295.03677"
       id="text1148-2-1"><tspan
         sodipodi:role="line"
         id="tspan1146-5-8"
         x="115.9705"
         y="295.03677"
         style="font-style:normal;font-variant:normal;font-weight:bold;font-stretch:normal;font-size:16.9333px;font-family:sans-serif;-inkscape-font-specification:'sans-serif Bold';stroke-width:0.695779">60.86, -1.77</tspan></text>
    <path
       sodipodi:type="star"
       style="opacity:0.53871;fill:#d4aa00;fill-opacity:1;stroke:#000000;stroke-width:0.553072;stroke-miterlimit:4;stroke-dasharray:none;stroke-opacity:1"
       id="path1150-0-5"
       sodipodi:sides="5"
       sodipodi:cx="52.966614"
       sodipodi:cy="65.414856"
       sodipodi:r1="2.650074"
       sodipodi:r2="0.90102535"
       sodipodi:arg1="0.46364817"
       sodipodi:arg2="1.0919667"
       inkscape:flatsided="false"
       inkscape:rounded="0"
       inkscape:randomized="0"
       inkscape:transform-center-x="0.3758985"
       inkscape:transform-center-y="0.34348338"
       transform="matrix(3.082702,0,0,2.5592595,20.691115,110.21393)"
       d="m 55.336911,66.600006 -1.955158,-0.385459 -0.809822,1.820828 -0.237584,-1.97858 -1.981958,-0.20752 1.808323,-0.83737 -0.415095,-1.949082 1.355189,1.461056 1.725415,-0.997078 -0.970771,1.740352 z" />
  </g>
</svg>
